/* XPM */
static char *_4fc070923df459dd6950d6ffa4407e83k1NP8H9yv0armdM[] = {
/* columns rows colors chars-per-pixel */
"64 64 240 2 ",
"   c #020101",
".  c #0C0503",
"X  c #0D0B0A",
"o  c #110704",
"O  c #140905",
"+  c #1B0C06",
"@  c #130708",
"#  c #120D0D",
"$  c #1C0B09",
"%  c #17100E",
"&  c #151111",
"*  c #1B1615",
"=  c #1E1919",
"-  c #220C09",
";  c #280C0D",
":  c #25120A",
">  c #2C140B",
",  c #32150C",
"<  c #39170F",
"1  c #34190E",
"2  c #3A1A0F",
"3  c #320F10",
"4  c #261715",
"5  c #231C1C",
"6  c #371614",
"7  c #3B1B11",
"8  c #3C240A",
"9  c #3B2418",
"0  c #261E20",
"q  c #282323",
"w  c #2C2424",
"e  c #372726",
"r  c #3A2C2B",
"t  c #3B3333",
"y  c #431C12",
"u  c #4B1D14",
"i  c #461719",
"p  c #531B19",
"a  c #730A0A",
"s  c #681B1B",
"d  c #761919",
"f  c #593B06",
"g  c #452214",
"h  c #4A2416",
"j  c #4B2817",
"k  c #40241B",
"l  c #4D2618",
"z  c #4C2918",
"x  c #522617",
"c  c #5A2617",
"v  c #542618",
"b  c #5A2519",
"n  c #532B1A",
"m  c #5C2D1C",
"M  c #4A3717",
"N  c #523510",
"B  c #603F05",
"V  c #66261D",
"C  c #69251E",
"Z  c #64291E",
"A  c #68281F",
"S  c #671D21",
"D  c #741E23",
"F  c #791E24",
"G  c #4A2424",
"H  c #462A28",
"J  c #562625",
"K  c #473628",
"L  c #57372B",
"P  c #443433",
"I  c #493936",
"U  c #543B38",
"Y  c #642421",
"T  c #6B2521",
"R  c #662B20",
"E  c #6B2922",
"W  c #6B2C2A",
"Q  c #742524",
"!  c #7B2426",
"~  c #7E2428",
"^  c #772929",
"/  c #68342B",
"(  c #752E30",
")  c #6A3633",
"_  c #7A3737",
"`  c #5B420D",
"'  c #5C4319",
"]  c #654609",
"[  c #7B580A",
"{  c #684C19",
"}  c #6F5014",
"|  c #795919",
" . c #5A4828",
".. c #4E403A",
"X. c #564439",
"o. c #634D24",
"O. c #6B552A",
"+. c #775C26",
"@. c #634D3C",
"#. c #77443B",
"$. c #6B563A",
"%. c #755B39",
"&. c #7C622C",
"*. c #7C6436",
"=. c #4E4141",
"-. c #594A45",
";. c #654B43",
":. c #794946",
">. c #695647",
",. c #725C43",
"<. c #75594B",
"1. c #655554",
"2. c #765D56",
"3. c #796548",
"4. c #786655",
"5. c #6D6262",
"6. c #786868",
"7. c #890A0A",
"8. c #990807",
"9. c #96100F",
"0. c #861615",
"q. c #961A19",
"w. c #A60605",
"e. c #BB0202",
"r. c #B70908",
"t. c #B3100F",
"y. c #A91B19",
"u. c #B91816",
"i. c #9A201E",
"p. c #B0211E",
"a. c #812227",
"s. c #8C2422",
"d. c #832329",
"f. c #842329",
"g. c #852329",
"h. c #89262C",
"j. c #84292D",
"k. c #8D2A2E",
"l. c #982826",
"z. c #912C2E",
"x. c #8F2C30",
"c. c #922D31",
"v. c #853435",
"b. c #943133",
"n. c #993936",
"m. c #A72726",
"M. c #B52A28",
"N. c #B2312E",
"B. c #A83A36",
"V. c #B43735",
"C. c #C40202",
"Z. c #C70707",
"A. c #C40C0B",
"S. c #D20E0E",
"D. c #C51716",
"F. c #CA2726",
"G. c #D12B2A",
"H. c #C63937",
"J. c #825D12",
"K. c #89671A",
"L. c #956F12",
"P. c #926C1B",
"I. c #A3791B",
"U. c #8D4A3E",
"Y. c #BC423F",
"T. c #886826",
"R. c #8F6F29",
"E. c #8B6B2C",
"W. c #9A7727",
"Q. c #93722D",
"!. c #866936",
"~. c #856D3B",
"^. c #8A6C3B",
"/. c #8D7238",
"(. c #987838",
"). c #A37C26",
"_. c #A27D34",
"`. c #D2403F",
"'. c #894747",
"]. c #994945",
"[. c #865649",
"{. c #98524D",
"}. c #885C58",
"|. c #995C56",
" X c #A74B48",
".X c #B74C49",
"XX c #A95853",
"oX c #B85A55",
"OX c #866748",
"+X c #8A7447",
"@X c #957B46",
"#X c #8A6C57",
"$X c #937555",
"%X c #A8635D",
"&X c #B6665F",
"*X c #9D6B64",
"=X c #92706C",
"-X c #877A7A",
";X c #A86D66",
":X c #AD736C",
">X c #B3736C",
",X c #BC726C",
"<X c #C54F4B",
"1X c #C6635E",
"2X c #AB8329",
"3X c #B48929",
"4X c #AA8536",
"5X c #A3823B",
"6X c #B38B36",
"7X c #B9913A",
"8X c #C8972B",
"9X c #C89B35",
"0X c #CDA13E",
"qX c #9C8246",
"wX c #998456",
"eX c #A88A46",
"rX c #B79444",
"tX c #AB8F53",
"yX c #B49956",
"uX c #988665",
"iX c #AF916F",
"pX c #BAA674",
"aX c #C29F4E",
"sX c #CFA442",
"dX c #C6AC64",
"fX c #988989",
"gX c #9D9393",
"hX c #A39898",
"jX c #ADA5A5",
"kX c #B5ABAB",
"lX c #BBB3B3",
"zX c #C4BCBC",
"xX c #CBC4C4",
"cX c #D1C9C9",
"vX c #DAD5D5",
"bX c #E5DEDE",
"nX c #E9E5E5",
"mX c #F2EFEF",
"MX c #F6F4F4",
"NX c #FDFCFC",
/* pixels */
"l R Q ! ~ Q m n n m Q ~ ! R Z j h Z ! f.j.Q m h h m Q d.h.~ A h h T f.b.b.f.A g h V f.c.c.f.A h h V d.k.k.d.V h x A f.b.c.f.V h ",
"l A Q d.f.! A n z m Q f.~ E m h h Z Q ~ E Z m h h Z Q j.h.~ V g h A d.b.b.f.V h h V f.c.c.f.V h g V f.z.k.~ A h n A d.c.c.f.A h ",
"h R ! h.k.~ A h h V ~ k.h.d.A h h Z Q Q R n n g j A ~ h.h.~ V h l V d.c.c.f.V g h V f.c.c.d.A h g V f.c.x.~ A l x A f.c.c.f.A l ",
"x A ~ k.c.d.V h h A d.c.c.f.A l g Z Q R n 9 g 9 h Z ~ k.h.~ Z g l A a.k.k.~ V h h V f.c.c.f.A l h A f.c.c.d.A h h V a.z.c.f.V h ",
"n A ~ k.c.d.V h h A d.c.c.f.V h h A ! T n k 9 1 g A ~ k.k.! m h l A ~ k.k.! A h h V f.c.c.d.A x h A f.c.c.d.V g h A d.c.c.f.A h ",
"n A ~ k.h.~ A n l A d.c.c.f.A l h A ! ~ R m n g g V d.k.k.Q R m l A ~ h.h.~ R l l A f.c.c.f.A x h A a.c.c.f.V g h A f.c.c.f.A h ",
"h A ! h.h.! m m m R ! z.c.d.V h h A ~ f.Q E R n h V d.x.k.Q E m j m Q f.f.! Z h h A f.c.c.f.V h h A a.c.c.f.V h h A f.c.c.a.A h ",
"h A ! h.h.Q m n m Z ~ k.z.d.A h h V ! f.! Q A n h V d.k.k.Q m j j n T d.j.d.A h h A f.b.b.f.A h h A d.c.c.f.A h h A f.c.c.f.A l ",
"l A ~ h.f.! Z h n Z ~ k.k.d.R h l Z ! f.f.Q A l h A d.c.k.! R m n m Q d.d.~ R h h A f.b.b.h.A h h A f.c.c.f.A h h A d.c.z.d.T m ",
"l Z ! h.h.~ A n l A ~ k.k.~ Z h h Z ! h.f.~ T l l T h.b.v._ ) L K L ( j.~ Q V h h A f.b.c.f.A l h A f.c.c.f.A h h A d.k.k.~ T m ",
"h Z Q h.h.~ A l h V a.k.k.! Z g l A ! f.f.~ R z L #.[.}.2.4.4.4.2.2.2.<.'._ W l l A f.c.c.a.V l h A a.z.c.f.A h h A d.k.k.! A n ",
"h Z Q j.h.~ A h h V a.x.k.! Z h l A ! j.k.j.#.<.4.1.4.3.3._.rX9X9XrX4XE.*.,.;.;.L R f.c.z.a.A l l A a.z.c.f.A h h A d.x.k.! R n ",
"n V T T D Q V h h V Q F D Q V h l Z T Q _ }.#X4.+X+X5XwX%.wX+X2XaX(.W.).L.2XW.!.>.;.( ! F F V h l V D D F F V h h V Q D D Q V l ",
"l v 7 $ $ 2 x h h v 7 - - 7 b h h v H -.4.>.@X9XeX@X@XuXeX5X .0X9Xo./.tXE.K.W.6X8X/.-.P > 7 x g g v y - - < x g h v 7 - $ < x h ",
"2 : o . . o : 7 2 > o . . O > 7 7 H >.4.OX+X/.wXwX&.W.| M %.rX6X6X7X(.' O.Q./.K.L.6XW.*.I : : 1 1 : o . . o - 1 7 > O o . o > 7 ",
"O o + > > + o O O o + , , + o + r 4.4.+X4XwX+XqXo.qX+X,.=.r q 5 5 w t -.!._.5X{ T.Q.L.).E.X.: O O . + > > + . O O o + , , + o O ",
". + u V V y + . . + u V V u : e 4.4.rX@X@X$X&.N 3.P * @ 5 r P U I P r 4 * q X.@XE.} ] P.2X2XX.* . + 2 c c 2 + . . + y V V u + . ",
"+ 2 C a.a.C 7 + + 2 s f.f.T L 4.>.5XeXiXE.Q.@.I # * I '..XH.F.G.H.G.u.m.v.H 4 q X.%.Q.4XK.I.5XI : 7 C ! Q b 1 + + 7 C f.f.C y + ",
"1 b ! h.h.! b , , b ~ c.c.v.OX4.+X(.wXO.~.4.5 # U  X`.A.oXn.&Xt.B.}.H.B.Z.D.s.P 4 P (.W.` J.eXT.P h Q ~ ~ T h > > b a.c.c.~ n 1 ",
"g V ! h.k.d.V y y V a.c.b.[.#X+X(.+XyX| ,.& q '.G.oXB.u.:XC.%XD.|.r.1Xy.oX=Xe.u.W e P ^.yXK.K.K.!.e Y ~ d.! m 7 7 V f.b.c.d.Z g ",
"h m Q k.c.f.V h h V a.c.'.$X3.5X@X+XM I & e  XS.Z.N.{.%XM.XXz.u.n.b. XB.|.;Xr.:Xr.^ G P O.f f K.W.@.i Q d.~ T l h V f.c.c.! n 9 ",
"j n ! x.c.a.V h g V ~ b.}.#X7XeX@X(.OX* e .X<XD.n.A.n.y.e.7.d d d 0.w.e.C.b.oXq.C.D.^ G U (.(.T.W.3Xr S f.! V h h A f.c.c.! m n ",
"h l Q k.k.! V h h A d.'.$X3.9XwX!.$.r 4 ].S.u.>XY.y.w.s H 1.-X1.=.fX6.) 9.C.V.N.G.*Xr.W G @.4XK.| 3X$.6 ~ ! Z h h A f.c.c.! Z m ",
"n n Q k.h.! Z l l A j.[.4.@XW.~./.>.X :.G.>XoXN.q.7.P 5.vXMXgX* # hXNXnXfXQ e.r.{.t.:XB.H U ^.).f 5X!.r S ~ V g h V f.c.c.! Z n ",
"m A ! h.h.Q m h l A v.$X3.4XE.yX{ w e H.A.;X{.m.7.P jXNXNXgX=   t hXNXNXNXxX_ e.D.V. XB.! e >.yX| (.T.X.6 Q V g g V f.c.x.! Z z ",
"n A ! h.f.E m j h A _ $X@X).~.+.I # '.F.H.u. Xw.P lXNXNXgX*   t hXNXNXnXNXNXvX( C.oX].A.m.H U +.f | E.!.4 S T h h A f.c.k.! A n ",
"n A ! h.d.Q m g h R :.4.5X).E.^.P 6 V.Z.B.iXy.G gXNXNXgX*   t hXNXNXxXt hXNXNXzX9.C.C.H.;XY e ,.W.] (.E.5 p V h l A d.c.k.! A m ",
"l Z ~ h.h.! m j n R OX<.9XqX@X .5 L F.,X*Xl.7.-.mXNXhX=   w fXNXNXxXt   X hXNXNX}.C. XU. X! 4 -.eX[ E.).r 6 V h l A a.c.k.! Z l ",
"g Z a.k.h.Q Z n m / OX,.0X*.&.+X# _ S.y.n.n.s fXNXNXcXw   . -XNXxXt   .   X hXNXlX8.C.D.H.q.w U 4XW.+.P...; b h h A d.c.z.! m h ",
"h V a.c.k.! A n m / OX,.3X&.(.%.$ b.D.|.%Xu.J vXvXNXNXxXw   . 6.t   5 1.=   # hXnXa u.].n.9.e I @X3X' Q.X.$ b h h A f.c.z.a.V h ",
"l A f.c.k.! Z j l / OX%.3X~.E...; m.M.u.F.z.U gXq lXNXNXxXw   .   5 6.nXkX5   X gXT D.N.&Xm.H P +X4X+.+XX.@ p h h A f.c.c.f.A l ",
"l A d.k.h.! Z g h / OX!.I.+.M >.3 m.A.;X}.w.U 5   * lXNXNXhX*     =.nXNXNXkX=   e J F.>Xb.n.H P ^.[ ' o.X.@ u h h A d.c.c.f.A l ",
"h V d.k.h.! T h g / OX%.).| 4X$.3 m.A.<XoXy.) fX&   * lXxXt   &   X -XMXNXNXkXr -Xs C.B.r.9.r P (.6X` &.X.o u h g V a.c.c.f.A l ",
"h A f.k.f.! T h g W [.$.2X@X&.OX4 s.Z.l.w.e.W bXfX#   = t   5 1.w   . -XNXNXNXcXvXa Y.*X>X8.e I (.rX| !.I o u g g V d.c.c.f.A l ",
"h A f.z.h.! A h h W [.,.6XT.Q.(.4 ! S..X<X{.0.kXNXgX#     q 6.nXxXw   . -XMXNXNXjX7.b.C..Xd = =.7XrXo.T.I @ u g l T d.k.c.f.V h ",
"h V f.c.x.d.V h h R U.>.3X[ (.(.e Y C.&Xs.u.y.2.NXNXfX# 5 6.nXNXNXgXX   w lXNXNX:.u.V.Z.b.T X -.yX2X .+.w $ b n m A ~ k.x.f.V h ",
"g V a.k.k.a.V h h R #.,.W.4X4X{ X.p q.u.y.:XM.0.zXNXNXgX5.mXNXNXkXw   w -XMXNXkXa C.%X;Xw.e 5 3.rX` @X%.& ; V n n A a.k.c.f.A h ",
"g Z ! h.k.a.A h l A _ %.+.L.[ o.^.G ! C.<X|.*Xi.( vXNXNXMXNXNXkXw   w fXMXNXvXs t.>X{.e.d = I 7XI.M %.X.. 6 V l h A a.c.c.f.A h ",
"h A ! d.k.a.A l l A ~ %.$.W.[ Q.6XP Y y.r.8.u.,Xy._ vXNXNXNXkXw   w -XMXNXcXY m.>Xu.%X9.P & 2.aXW. .+.P . p V g h A d.z.c.f.V y ",
"l R ! d.f.~ V h l A d.#.>.E.).| 6X!.G W r.Z.*X]..Xi.d fXmXNXhX# w -XMXnX-Xs e.l. X;Xt.s # I eXaXN ~.$.* $ s V h h T d.c.c.f.V g ",
"l Z T Q ~ ! A h l A d.v.%.$.I.W.[ 6XX.J Q e.e.>X[.u.C.8.s =XhX1.-.fX}.s 8.C.Z.Z.m.].s w w 4.sX@XO.&.U   6 ! A l l T d.x.c.f.A h ",
"x Z T ~ ~ ! A l l A f.x.#.$.6XI.B eX&.U J Q e.y.r.m.r.XXXXr.w.9.q.8.e.XXXXu.m.r.C.a w & -.yXW. .+.(.5 @ S ~ T l l A d.x.k.a.A h ",
"h V Q d.d.! A n l A f.c.v.%.%.6X4XJ.] !.U J T w.C.C.G.n.<Xu.C..X|.C.C.oX].M.Z.e.d w & -.eXE. .^.W...  6 d.! V l l A ~ k.k.a.A l ",
"h V ! h.h.! V l h A f.c.x.) @.%.K.J.f 4X^.U G H 0.e.M.XX|.u.u.:X;XM.M..Xr.p.0.H = * 1.wX7XM 3.o.X.X @ T h.! A l l A ! h.h.~ A l ",
"h Z T D D Q V h h V ! F F T L X.Q.Q.R.| 2X(.,.H 6 G 0.w.e.A.t.t.C.t.t.w.a L q X t 4.yXyXN O.Q.%.=   < S D T m l j Z T D D Q A l ",
"h v 7 - $ 7 v g g v < - - 7 J L X.Q.W.Q.} ] yXT...e 4 e G p d d d s G e q X w -.pXR.OX .*.&.$.w   + , - $ , x h h x , $ - 7 v h ",
"g > O . . o : 2 2 > o . . o > 9 K X.4X8XP.| } f E.3.-.P q * & # # # & q I -.#XyX{ M O.T.8X@Xw   . + o . . o : 7 7 : o . . o : 7 ",
"+ o + , , + o + O o + , , + o O 4 K U (.8X(.E.{ T.4X7XtX#X3.-.-.1.3.,.uX+XyXyXO. .~.!.3X+Xq     o o + , , + o O O o + , > + . O ",
". + y V V u + . . + u V V y + . . 4 H P %.).W.E.T.N } K.| W.2XdXdX| eX@XN *.M O.R.W.E.;.&   . . . + y V V u + . . + y V V y + . ",
"+ 2 C f.f.C 7 + + 2 C f.d.V 2 O + 1 v G e I ^.3X3XR.(.~.o.{ L.L.] 8 { O.!.E.R.)._.OXe . . ; > O + 2 C d.a.C 7 + + 2 C a.a.C 2 + ",
"1 v ! k.c.~ b 1 , v ! k.h.! x > , v Q Q J 9 w I !.4XE.+.&.pX| ] [ K.T.P.| +.5X,.r X   $ i S b , , b ~ k.k.! c , , v ! f.f.! b 1 ",
"g Z a.c.c.f.V g g Z Q h.k.a.V g g V d.k.j.S 6 4 * w I @.~.K M R.M 9 o.OX;.P = .   o 3 S h.d.V g g V f.c.z.a.V g y V ~ d.d.! Z h ",
"g A d.c.c.f.A h h A ! h.h.d.A h l A f.c.c.a.b 2 4 4 & % & * 5 0 5 = & X . . . o : u Q f.h.d.V h h A d.c.k.a.A h h A ~ f.! E m h ",
"g A d.c.c.d.A g g V ! f.h.! A l l T f.c.c.f.V g g p p i 6 ; + @ o O $ ; 3 i y 7 g V ! f.h.! A g h A d.c.k.~ V h h T d.f.! E m g ",
"l A d.c.c.f.V h h V ! f.h.~ T n x A f.c.b.f.A h h A d.k.j.D p 7 2 u S ~ j.~ V g g Z ! f.f.! Z g h A f.c.k.d.A h h A d.f.! R m j ",
"n T d.k.c.f.A l h Z Q d.f.~ A x l A a.c.c.f.V h h A f.b.b.f.A h h A f.c.b.f.V g g Z ! h.f.! V h g V f.c.c.d.A l h V d.h.! R m h ",
"h A d.k.k.d.A n z Z E ~ h.d.Z g h A f.c.c.f.A h h V f.c.c.f.A h h A f.c.c.f.V g h A Q h.h.! V h h V a.c.c.d.A l h V d.h.d.Q m h ",
"l A ! k.k.! Z n n Z Q d.f.~ A g h A f.c.c.f.A h h A d.c.c.f.A l h A f.c.c.f.V h h A ! f.h.~ A l h V a.c.c.f.A x l V d.k.x.~ A z ",
"n A ~ k.h.! Z h h A ! h.f.! V h h A f.c.c.a.A h h A ~ k.c.f.A h h V a.k.c.f.V g h Z ! f.h.~ A n h A d.c.c.f.V h h V d.x.x.! A l ",
"m Z ~ k.f.Q m h h Z ! k.f.! V h h A d.c.k.a.V g g V ~ k.c.f.A h h A ! h.k.d.Z g n A ! h.k.a.T n h A d.c.c.f.V h h V f.z.k.! A n ",
"n Z Q f.d.Q m n j Z ! h.f.! Z g h V d.c.k.a.A g g Z Q h.k.d.A h l A Q h.k.! m h m A Q h.k.d.V l h Z ! x.c.f.A h h A f.z.k.~ A h ",
"h m Q d.Q R n j h m E ! ~ Q m h h V d.x.k.! A l h Z Q f.k.d.A h l T ! h.k.! m j n A Q h.c.d.V n n R ! k.c.f.A h h A a.c.z.d.V l ",
"h m E Q E R m h g m R Q Q R m n l Z ~ k.k.! V l h Z ! h.k.d.V h h A ! k.k.~ Z z z A ~ x.c.f.V l n R ! h.k.d.V h h A f.c.c.d.A l ",
"l Z E E R Z m g h n R Q Q R n j j Z ~ k.h.~ T n n R ~ h.h.~ V h h A ~ k.k.f.A h h A d.b.b.f.V h l A ~ h.x.d.V g h A f.c.z.f.A h "
};
