/* XPM */
static char *d4958af91034486de090ea123c80747fi4PbbXRvfPb11jHS[] = {
/* columns rows colors chars-per-pixel */
"64 64 253 2 ",
"   c #040100",
".  c #0C0502",
"X  c #0D0906",
"o  c #120603",
"O  c #1A0200",
"+  c #140904",
"@  c #1B0C06",
"#  c #150D0A",
"$  c #1E0B09",
"%  c #1C110A",
"&  c #1E1A17",
"*  c #240400",
"=  c #2C0400",
"-  c #260C05",
";  c #210B09",
":  c #330500",
">  c #3A0400",
",  c #390C01",
"<  c #281205",
"1  c #24120B",
"2  c #2B140B",
"3  c #391705",
"4  c #31150B",
"5  c #331A0D",
"6  c #3A1A0F",
"7  c #241613",
"8  c #2E1B11",
"9  c #371611",
"0  c #341C11",
"q  c #3C1C11",
"w  c #3A2109",
"e  c #2D2113",
"r  c #3C2314",
"t  c #392517",
"y  c #37312D",
"u  c #470500",
"i  c #430C00",
"p  c #4C0C00",
"a  c #5A0D00",
"s  c #431503",
"d  c #4B1201",
"f  c #471B07",
"g  c #541401",
"h  c #5D1200",
"j  c #551C04",
"k  c #5C1B02",
"l  c #431D11",
"z  c #491D12",
"x  c #4A1D1A",
"c  c #581B1B",
"v  c #641500",
"b  c #6B1600",
"n  c #651D01",
"m  c #731D01",
"M  c #492807",
"N  c #5A2304",
"B  c #582907",
"V  c #573309",
"C  c #452214",
"Z  c #4A2416",
"A  c #4B2817",
"S  c #4E2619",
"D  c #432919",
"F  c #4D2A19",
"G  c #522517",
"H  c #5A2713",
"J  c #542519",
"K  c #5B251A",
"L  c #532A1A",
"P  c #5C2D1C",
"I  c #4C3314",
"U  c #573719",
"Y  c #632302",
"T  c #6C2402",
"R  c #652C05",
"E  c #6D2B03",
"W  c #742402",
"Q  c #7A2504",
"!  c #742C02",
"~  c #7C2C01",
"^  c #683609",
"/  c #743304",
"(  c #7B3403",
")  c #773B07",
"_  c #66261D",
"`  c #69251E",
"'  c #64291E",
"]  c #68281F",
"[  c #653915",
"{  c #763117",
"}  c #681E21",
"|  c #741E23",
" . c #791E25",
".. c #5A2521",
"X. c #4A3622",
"o. c #49342D",
"O. c #573424",
"+. c #6C2521",
"@. c #662A20",
"#. c #6B2A22",
"$. c #682924",
"%. c #752524",
"&. c #742727",
"*. c #7B2426",
"=. c #7E2428",
"-. c #683727",
";. c #743C27",
":. c #5A4612",
">. c #744907",
",. c #774309",
"<. c #6C4619",
"1. c #7A4817",
"2. c #78561A",
"3. c #574527",
"4. c #664528",
"5. c #754C2C",
"6. c #6A542A",
"7. c #795E31",
"8. c #79653D",
"9. c #4E4744",
"0. c #852501",
"q. c #832D01",
"w. c #922F0F",
"e. c #843301",
"r. c #8B3602",
"t. c #843B04",
"y. c #8B3D03",
"u. c #933502",
"i. c #9D3301",
"p. c #943C03",
"a. c #9B3C02",
"s. c #893B1B",
"d. c #AC3D0E",
"f. c #822227",
"g. c #852927",
"h. c #832329",
"j. c #842329",
"k. c #852329",
"l. c #89272C",
"z. c #842A2D",
"x. c #8D2A2E",
"c. c #912B2F",
"v. c #893528",
"b. c #8F2C30",
"n. c #922D31",
"m. c #933132",
"M. c #923E33",
"N. c #A3372A",
"B. c #894607",
"V. c #944203",
"C. c #954903",
"Z. c #9B4A03",
"A. c #984808",
"S. c #88550A",
"D. c #975609",
"F. c #9A540B",
"G. c #874A14",
"H. c #934012",
"J. c #8A5A19",
"K. c #965712",
"L. c #A74703",
"P. c #A44A01",
"I. c #B24B03",
"U. c #A45403",
"Y. c #AC5403",
"T. c #A75A09",
"R. c #B85704",
"E. c #B54F18",
"W. c #A55C14",
"Q. c #9B6907",
"!. c #9E7908",
"~. c #9A6417",
"^. c #9D7716",
"/. c #A86508",
"(. c #B86707",
"). c #B4630A",
"_. c #A97408",
"`. c #B97409",
"'. c #A56B17",
"]. c #B66914",
"[. c #A87316",
"{. c #B87715",
"}. c #8D532A",
"|. c #AB4A26",
" X c #896425",
".X c #96672A",
"XX c #9A7222",
"oX c #8D7033",
"OX c #A87326",
"+X c #B87B28",
"@X c #A47B35",
"#X c #C45D01",
"$X c #C74A14",
"%X c #C76A06",
"&X c #C77707",
"*X c #D47907",
"=X c #CF6D15",
"-X c #C57916",
";X c #D97E1F",
":X c #895646",
">X c #8C7050",
",X c #B88407",
"<X c #A6851B",
"1X c #B9881B",
"2X c #9E8731",
"3X c #B88C29",
"4X c #BB9C28",
"5X c #B38D33",
"6X c #C8870C",
"7X c #D8870B",
"8X c #D38A0A",
"9X c #CA930E",
"0X c #D8970A",
"qX c #C58816",
"wX c #D78715",
"eX c #C69718",
"rX c #DB9615",
"tX c #E6970C",
"yX c #E89C13",
"uX c #D2A612",
"iX c #D6A619",
"pX c #E7A60C",
"aX c #EAA917",
"sX c #EFAF16",
"dX c #CF8F2A",
"fX c #C79923",
"gX c #D6A922",
"hX c #D9B92C",
"jX c #CBA930",
"kX c #DAA639",
"lX c #D6B636",
"zX c #E8B02C",
"xX c #F2B924",
"cX c #EABE35",
"vX c #DBC337",
"bX c #E9C736",
"nX c #F4D132",
"mX c #F8D938",
"MX c #F2E12D",
"NX c #B48C49",
"BX c #B8A94F",
"VX c #BCB160",
"CX c #C4984D",
"ZX c #D0B04A",
"AX c #E3B84C",
"SX c #C3B16F",
"DX c #D7C545",
"FX c #D5C557",
"GX c #DED357",
"HX c #EAD64B",
"JX c #E6D852",
"KX c #F3E552",
"LX c #EEE462",
/* pixels */
"Z @.%.*.=.%.P L L P %.=.*.@.' A Z ' *.j.z.%.P Z Z P %.h.l.=.] Z Z +.j.m.m.j.] C Z ] j.n.n.j.] Z Z ] h.x.x.h.] Z G ] j.m.n.j.] Z ",
"Z ] %.h.j.*.] L F P %.j.=.#.P Z Z ' %.=.#.' P Z Z ' %.z.l.=.] C Z ] h.m.m.j.] Z Z ] h.n.n.j.] Z C ] j.c.x.=.] Z L ] h.n.n.j.] Z ",
"Z @.*.l.x.=.] Z Z ] =.x.l.h.] Z Z ' %.%.@.L L C A ] =.l.l.=.] Z Z ] h.n.n.j.] C Z ] j.n.n.h.] Z C ] j.n.b.=.] Z G ] j.n.n.j.] Z ",
"G ] =.x.n.h.] Z Z ] h.n.n.j.] Z C ' %.@.L t C r Z ' =.x.l.=.' C Z ] f.x.x.=.] Z Z ] j.n.n.j.] Z Z ] j.n.n.h.] Z Z ] f.c.n.j.] Z ",
"L ] =.x.n.h.] Z Z ] h.n.n.j.] Z Z ] *.+.L r r 0 C ] =.x.x.*.P Z Z ] =.x.x.=.] Z Z ] j.n.n.h.] G Z ] j.n.n.h.] C Z ] h.n.n.j.] Z ",
"L ] =.x.l.=.] L S ] h.n.n.j.] Z Z ] *.=.@.P L C C ] h.x.x.%.@.P Z ] =.l.l.=.] S Z ] j.n.n.j.] G Z ] f.n.n.j.] C Z ] j.n.n.j.] Z ",
"Z ] *.l.l.*.P P P @.*.c.n.h.] Z Z ] =.j.%.#.@.L Z ] h.b.x.%.#.P A P %.j.j.*.' C Z ] j.n.n.j.] Z Z ] f.n.n.j.] Z Z ] j.n.n.j.] Z ",
"Z ] *.l.l.%.P L P ' =.x.c.h.] Z Z ] *.j.*.%.] L Z ] h.x.x.%.{ ~ w.w.s.v.z.=.] Z Z ] j.m.m.j.] Z Z ] h.n.n.j.] Z Z ] j.n.n.j.] Z ",
"Z ] =.l.j.*.' Z L ' =.x.x.h.@.Z Z ' *.j.j.%.] Z Z ] h.n.x.%.N V 5 U Q.qX.X+.@.Z Z ] j.m.m.l.] Z Z ] j.n.n.j.] Z Z ] h.n.c.h.+.P ",
"Z ' *.l.l.=.] L Z ] =.x.x.f.' Z Z ' *.l.j.*.] Z Z ] j.n.x.c t.6XB.R >.J.OXJ _ Z Z ] j.m.n.j.] Z Z ] j.n.n.j.] Z Z ] h.x.x.=.+.P ",
"Z ' %.l.l.=.] Z Z ] f.x.x.*.' Z Z ] *.j.j.=.] Z Z ] j.n.b.K R.pX6XE % F { x _ A Z ] j.n.n.f.] Z Z ] j.c.n.j.] Z Z ] h.x.x.*.] L ",
"Z ' %.z.l.=.] Z Z ] f.b.x.*.' Z Z ] *.l.x.f.] Z Z ] j.c.l.W %XpXaXfX1 K -.} _ Z Z ] j.n.c.f.] Z Z ] f.c.n.j.] Z Z ] h.b.x.*.@.L ",
"L ] +.+.| %.] Z Z ] %. .| %.] Z Z { w.w.E.s.K Z Z ] %.| } t.&X0X0XnX<.c } } ] Z Z ]  .$Xd.w.` Z Z ] | |  . .] Z Z ] %.| | %._ Z ",
"Z J q $ $ 6 G Z Z J q ; ; q K H H.-XF.^.`.1.q C Z G 9 ; 4 I.*X0X0XxXlX1 $ 6 J Z Z Z l *X*XwX*XE.H G l ; ; 9 G C Z J 6 ; $ 9 G Z ",
"6 1 o . . o 1 q 0 2 o . . + j ].].{.B.3 w 0 % 0 q 2 o . s R.*XyX8X0XnX3.. o 2 q q ; 0 ) K.`.0XpXrX) + . . o ; 5 q 2 + o . o 2 q ",
"+ o @ 2 2 @ o + + o @ 4 4 k W.-XH.d =     X X + @ o @ 4 ! R.*X7X8X8XxX5X1 @ o @ + o 8 .   o M D.sXsX2.2 2 @ . + + o @ 4 4 @ o + ",
". @ z _ _ l @ . . @ z _ { R.V.f A.e.u O   . o . . @ l H u.#X*X8X&X8XpXcX6.6 @ . . @ q o   . O O R {.hX<.G 6 @ . . @ l _ _ z @ . ",
"@ 6 ` f.f.` q @ @ 6 ` l.$X%X/ S.&XZ.b > . o 1 + @ 6 _ w.L.R.R.9X`.6XtXsXZXS 6 @ + 6 _ * . , * O * B iXjXJ K 5 + @ q ` j.j.` l @ ",
"5 K *.l.l.*.K 4 4 K =.N.=XF.F.N B.(.u.v = A ~.S.S.B.d.p.L.L.&X(.&X`.7XpXcX@XJ.G.B.L.I.O O > > p u > <.mX4.K Z 2 2 K f.n.n.=.L 5 ",
"C ] %.l.x.h.] l l ] j.|.) +X9X^ ,.T.( m v : W L.V.V.q.E q.d.R.L.I.Y.*X6XiXzX8X(.L.u.T . O i : g u i , 5X5Xc K q q _ j.m.n.h.' C ",
"Z P %.x.n.j.] Z Z ] h.=XG.[.{.~.1./.`.! A.v p * o o . N E a.L.R.A.&X&X&XuX_.s * O O O = , g p > = u > J.AXx K Z Z ] j.n.n.*.L r ",
"A L *.b.n.f.] Z C ] g.;X XKXcXeX,.H.K.) Y W T > O     ^ T ~ y.p.V.U.U.`.iXE = s z i Y a a W u.h u i * 4 nXO.J Z Z ] j.n.n.*.P L ",
"Z S %.x.x.*.] Z Z ] N.{.J.{.T.lXgXrXA.].K.'.B.W a : = n i ! e.( y.) U.`.qXV.t.R / n r.0.0.Q 0.q.Q g , : 4X XZ C Z ] j.n.n.*.' P ",
"L L %.x.l.*.' S Z @.E.2.JXkX/.OX[.eX6XW.S.F.q.~ b p > N d i n k j ! V.`.{.( ! ! ) ! p.a.a.L.u.W ~ n d > R 5Xq C Z ] j.n.n.*.' L ",
"P ] *.l.l.%.P Z A @.E.[ NX2XhXxX_.J.F./ S.V.Z.r.~ v p t.d : i Y Y R ) ,X{.Z.Z.V.S.).p.(.Z.q.A.t.Y.t.n g j 5X0 q C ] j.n.b.*.' F ",
"L ] *.l.j.#.P A Z $.].~.bX^. XK.K./.rX`.`.0.a n v a d j p * j g E Y ( /.jXV.! ! N ,.( y.R.a.e.~ q.V.y.p = 3XD q Z ] j.n.x.*.] L ",
"L ] *.l.h.%.P C Z @.K.3XvXbX1XcXeX1XrX&XZ.m h b v a a s h d i p g T / D.jX^ k / t.y.a.U.%XY.L.p.r.~ h k : {.P q Z ] h.n.x.*.] P ",
"Z ' =.l.l.*.P A L #./.jXlXmXfXzXgX6XrXZ.q.b v h k u g = N F.g Y j d B B.eX~.! ( C.U.L.(.%X#XR.I.P.V.W Q i '.{ 0 Z ] f.n.x.*.' Z ",
"C ' f.x.l.%.' L P s.-XhXZXDXlXhXgX&XT.V.t.q.m a W p g = ! _./ k d @ B B.9XqXe.C.Z./.P.(.&X&X&XR.).Y.e.e.g G.1.0 Z ] h.n.c.*.P Z ",
"Z ] f.n.x.*.] L P s.qXvXDXlXHXgXgX(.r.C.y.p.W v Q p T = T !.V d d . N ) ,X9Xr.U.U.`.U.`.*X*X7X%X8X(.p.V.k ,.J.0 C ] j.n.c.f.] Z ",
"Z ] j.n.x.*.' A G s.1XDXFXlXKXgXiXC.T r.m m n m m b ( * E !.R i > . N ) ,X9XQ A.e.T.C.B.(.).pX0XpX*X).T.Y ^  X0 C ] j.n.n.j.] Z ",
"Z ] h.x.l.*.' C Z G.dXHXGXDXKXeX).W u.0.q.W W u.v 0.T , ^ _.^ i > . N R Q.9XV.V.P.p.P.e.U.p.6X/.sXyXrX8Xe.B .X0 C ] h.n.n.j.] Z ",
"Z ] h.x.l.*.+.Z C }.5XKXFXlXjX[.U.r.u.r.q.t.C.R.e.i.n : >.Q.B d :   Y / Q.9XU.D.Y.U.R.Z.&XI.I.L.T.[._.0XU.R .X8 C ] f.n.n.j.] Z ",
"Z ] j.x.j.*.+.Z Z .X@XGXOXfXlX3XC.p.a.C.C.U.T.R./.I.j 3 >.!.M *     ! E D.9X`./.`.`.(.`.&XY.Y.I.).V.,./ F.) oX8 q ] h.n.n.j.] Z ",
"Z ] j.c.l.*.] Z Z .X<X4XvXhXMX[.p.F.L.T.) ).A.).&XY.s s D._.M o     ) y./.eXeX_.,X9X&XeXuX%XR.P.&Xa.D.d s j  X8 Z +.h.x.n.j.] Z ",
"Z ] j.n.b.h.] Z Z }.4XJXHXvXmX~.p.T.P.E e <.F [ 1.F.N B ) 9X<X^. X2X'.C./.uX5X:.U J.<.3.'.*X#XI.8Xu.D.T : @ 7.0 L ] =.x.b.j.] Z ",
"C ] f.x.x.f.] Z Z }.BXLXJXDXmX~.y.Y.U.2 S -.O.O.O.1.< - ) fX[.B XXf ^.iX2.:.@Xe X.4.-.-.}.;X%XI.8Xy._.t.: + 7.0 Z ] f.x.n.j.] Z ",
"C ' *.l.x.f.] Z S 5.BXJXHXhXMX{.V.R.U.2 } %.K C Z 2.B j M J.BX@ M + M 3X1X3XXXe q P +.=.M.wX*XR.7Xt.`.r.k @ 6.0 C ] f.n.n.j.] Z ",
"Z ] *.h.x.f.] Z Z -.VXGXKXvXmXeXZ.(.L.9 %.h.] Z { {.,.< % [ <X3 T.[ M @XI [ 1.7.q _ =.x.m.;X7X(.7Xy.-XZ.e.4 3.8 C ] h.c.n.j.] l ",
"Z @.*.h.j.=.] Z Z -.SXDXKXlXnXiXR.(.e.9 =.h.] Z ' V U J.G.; :.. - 3 4 J.V ^ e <.r ] h.n.m.OXtX&XyXP.6XY.e.3 y 8 Z +.h.n.n.j.] C ",
"S ' +.%.=.*.] Z Z -.SXDXLXHXnXiX&X[ l x h.h.] Z <.M R N + & e 4.4.# X - M / U U r _ h.b.l.}.OX0XsX).wXR.a.3 7 0 Z +.h.b.n.j.] Z ",
"G ' +.=.=.*.] S Z #.SXFXLXZXnXfX^.8 x +.l.h.] L '.) G.+ y 9.5.zX+X2 $ # 5 ~.K.F.C ] h.b.x.z.5.3XxX&XrX%XZ.3 1 q Z ] h.b.x.f.] Z ",
"Z ] %.h.h.*.] L Z @.>X>XVXoXbX6.3.q } z.b.j.] ~.G.{.< & o.7.zX(.3 U 4.2 7 B F.T.[ ] h.n.b.h.-. X4X).[.].V 1 4 C Z ] =.x.x.f.] Z ",
"Z ] *.l.l.*.] Z Z ] z.:X>X8.>XX.X.J =.b.b.h.$.,.T./ # 7 f dXzX[ U ZXAX5.8 % ).(.B._ j.n.n.j.] -.6.5.4.4.D q Z Z S ] *.l.l.=.] S ",
"Z ' +.| | %.] Z Z ] | %.%.;.5.D C _ | | | %.;.`.U.@ o -.1 d wXZXZX7X(.AX4.1 3 (.K.P *. . . .] S F -.O...K c L Z A ' +.| | %.] Z ",
"Z J q ; $ q G C C G 6 $ $ q J C C J 9 $ $ q D '.,.o H AXNX1 E yXaX^ , ).ZXC @ F.F.Z q ; ; q J C C G q $ $ 5 G Z Z G 5 $ ; q J Z ",
"C 2 + . . o 1 6 6 2 o . . o 2 q 6 1 o . . o U -X(.- + ! zXNXkX7XrXZXr , T + 3 %X1Xt + . . o 1 5 q 1 o . . o 1 q q 1 o . . o 1 q ",
"@ o @ 4 4 @ o @ + o @ 4 4 @ o + + o @ 4 4 @ e /.D.) X @ ! yX7XN Y aXCX5 + X S.,.K.8 @ 4 4 @ o + + o @ 4 4 @ o + + o @ 4 2 @ . + ",
". @ l _ _ z @ . . @ z _ _ l @ . . @ l _ _ l e D./.B.X $ @ ! N 5 NXyXt.@ # @ D.T.,.1 l _ _ z @ . . @ l _ _ z @ . . @ l _ _ l @ . ",
"@ 6 ` j.j.` q @ @ 6 ` j.h.] 6 + @ 6 ` h.f.` C [ B V ,.; 1 @ 2 5XyXe.@ $ ; 2.) ^ 5 5 _ f.f.` 6 + @ 6 ` h.f.` 6 @ @ 6 ` f.f.` 6 @ ",
"5 J *.x.n.=.K 5 2 J *.x.l.*.G 2 4 J *.x.c.=.J D G.K.F.V 4 1 ; ! ( + $ 2 3.W.<.^ 8 C %.l.x.=.K 4 4 K =.x.x.=.H 4 4 G *.j.j.*.K 5 ",
"C ' f.n.n.j.] C C ' %.l.x.f._ C C ] h.n.n.j._ C D F.K.&XB w 1 @ + # 2 U ].) D.r 0 K %.l.x.h.] C C ] j.n.c.f.] C l _ *.h.h.*.' Z ",
"C ] h.n.n.j.] Z Z ] *.l.l.h.] Z Z ] j.n.n.j.] l D U T.T./.B.G..X~.J.) K.T.F.r e C ' =.l.l.h.] Z Z ] h.n.x.f.] Z Z ] =.j.=.&.P Z ",
"C ] h.n.n.h.] C C ] *.j.l.*.] Z Z +.j.n.n.j.] C C O.F V B <.+X*X&X,.qXR R r r 0 C ] *.j.l.*.] C Z ] h.n.x.=.] Z Z +.h.j.=.#.P C ",
"Z ] h.n.n.j.] Z Z ] *.j.l.=.+.L G ] j.n.m.j.] Z Z K ..F t U ) B B V M 6 t C x C C ' *.j.j.*.' C Z ] j.n.x.h.] Z Z ] h.j.*.@.P A ",
"L +.h.x.n.j.] S Z ' %.h.j.=.] G Z ] f.n.n.j.] Z Z ] %.%.$.O.X.t t t D S ..} _ Z C ' *.l.j.*.] Z C ] j.n.n.h.] Z Z ] h.l.*.@.P Z ",
"Z ] h.x.x.h.] L F ' #.=.l.h.' C Z ] j.n.n.j.] Z Z ] h.x.z.| J 0 0 x c %.z.=.] C C ] %.l.l.*.] Z Z ] j.n.n.h.] Z Z ] h.l.h.%.P Z ",
"Z ] *.x.x.*.' L L ' %.h.j.=.] C Z ] j.n.n.j.] Z Z ] h.n.n.h.] Z C _ =.b.n.j.] Z Z ] *.j.l.=.] Z Z ] f.n.n.j.] G Z ] h.x.b.=.] F ",
"L ] =.x.l.*.' Z Z ] *.l.j.*.] Z Z ] j.n.n.f.] Z Z ] =.x.n.j.] Z Z ] =.b.n.j.] C Z ' *.j.l.=.] L Z ] h.n.n.j.] Z Z ] h.b.b.*.] Z ",
"P ] =.x.j.%.P Z Z ' *.x.j.*.] Z Z ] h.n.x.f.] C C ] =.x.n.j.] Z Z ] *.l.x.h.' C L ] *.l.x.f.+.L Z ] h.n.n.j.] Z Z ] j.c.x.*.] L ",
"L ' %.j.h.%.P L A ' *.l.j.*.' C Z ] h.n.x.f.] C C ' %.l.x.h.] Z S ] %.l.x.*.P Z P ] %.l.x.h.] S Z ' *.b.n.j.] Z Z ] j.c.x.=.] Z ",
"Z P %.=.%.@.L A Z P +.*.=.%.P Z Z ] h.b.x.*.] Z Z ' %.j.x.h.] Z S +.*.l.x.*.P A L ] %.l.n.h.] L L @.*.x.n.j.] Z Z ] f.n.c.h.] Z ",
"Z P #.%.&.@.P Z C P @.%.%.@.P L Z ' =.x.x.*.] Z Z ' *.l.x.h.] Z Z ] *.l.x.=.' F F ] =.b.n.j.] Z L @.=.l.x.h.] Z Z ] j.n.n.h.] Z ",
"Z ' #.#.@.' P C Z L @.%.%.@.L A A ' =.x.l.=.+.L L @.=.l.l.=.] Z Z ] =.x.x.j.] Z Z ] h.m.m.j.] Z Z ] =.l.b.h.] C Z ] j.n.c.j.] Z "
};
