/* XPM */
static char *_abe0498d99d4accfcb3c4ce90c59732gvdZB90ZzQChr1fj[] = {
/* columns rows colors chars-per-pixel */
"64 64 194 2 ",
"   c #020202",
".  c #0C0502",
"X  c #0C0C0B",
"o  c #110703",
"O  c #140905",
"+  c #1B0C06",
"@  c #120D0B",
"#  c #1E0C08",
"$  c #1B130F",
"%  c #141313",
"&  c #191614",
"*  c #1B1B1B",
"=  c #210B08",
"-  c #24120B",
";  c #2C140B",
":  c #2E180E",
">  c #32150C",
",  c #39170F",
"<  c #33190E",
"1  c #3A1A0F",
"2  c #241413",
"3  c #2B1610",
"4  c #261A15",
"5  c #211E1D",
"6  c #2B1B1B",
"7  c #3C1712",
"8  c #351B11",
"9  c #3C1B11",
"0  c #381518",
"q  c #351C1B",
"w  c #3B1C1D",
"e  c #21201F",
"r  c #2B201D",
"t  c #3D2315",
"y  c #38251D",
"u  c #3F1F20",
"i  c #232323",
"p  c #2B2525",
"a  c #2C2828",
"s  c #2C2B2B",
"d  c #3B2A25",
"f  c #322D2C",
"g  c #3B2C2D",
"h  c #32302F",
"j  c #343333",
"k  c #393636",
"l  c #3A3837",
"z  c #3B3B3B",
"x  c #431C12",
"c  c #4A1C12",
"v  c #431618",
"b  c #45161A",
"n  c #491719",
"m  c #4B1C1D",
"M  c #5A1B1C",
"N  c #611B1E",
"B  c #452214",
"V  c #4A2416",
"C  c #4B2817",
"Z  c #45261B",
"A  c #4E2718",
"S  c #4C2918",
"D  c #522617",
"F  c #5A2617",
"G  c #542519",
"H  c #5B2519",
"J  c #532B1A",
"K  c #5C2D1C",
"L  c #59311C",
"P  c #66261D",
"I  c #69251E",
"U  c #64291E",
"Y  c #68281F",
"T  c #441F21",
"R  c #5C1D21",
"E  c #661E21",
"W  c #6B1E22",
"Q  c #731E23",
"!  c #781E25",
"~  c #462727",
"^  c #422A24",
"/  c #4A2B2C",
"(  c #522C23",
")  c #552927",
"_  c #5C2A22",
"`  c #5A2629",
"'  c #5A292B",
"]  c #433534",
"[  c #4B3231",
"{  c #4D3B36",
"}  c #433D3C",
"|  c #4E3E3E",
" . c #5C3735",
".. c #573B35",
"X. c #5B3C34",
"o. c #543B3C",
"O. c #662522",
"+. c #6C2521",
"@. c #662A20",
"#. c #6B2922",
"$. c #68282B",
"%. c #752524",
"&. c #7D2327",
"*. c #7E2227",
"=. c #792426",
"-. c #7B2426",
";. c #7D2427",
":. c #732826",
">. c #702629",
",. c #7F2328",
"<. c #7D2528",
"1. c #7F2428",
"2. c #77292B",
"3. c #7C292C",
"4. c #623028",
"5. c #672F32",
"6. c #762F32",
"7. c #7A2F33",
"8. c #613B39",
"9. c #6A3B3F",
"0. c #773436",
"q. c #793336",
"w. c #7B3639",
"e. c #76393C",
"r. c #4B413E",
"t. c #5C3F41",
"y. c #444444",
"u. c #4C4544",
"i. c #4C4C4C",
"p. c #5C4748",
"a. c #524C4C",
"s. c #5D4F50",
"d. c #545454",
"f. c #595352",
"g. c #5C5C5C",
"h. c #684647",
"j. c #654B45",
"k. c #794548",
"l. c #6A544D",
"z. c #655454",
"x. c #6C5354",
"c. c #625D5C",
"v. c #6B5E5F",
"b. c #785A5A",
"n. c #74625C",
"m. c #646363",
"M. c #6B6565",
"N. c #6B6B6B",
"B. c #7B6561",
"V. c #776768",
"C. c #746C6C",
"Z. c #737373",
"A. c #7A7675",
"S. c #7C7C7C",
"D. c #812227",
"F. c #822228",
"G. c #832329",
"H. c #842329",
"J. c #802429",
"K. c #85252B",
"L. c #89262C",
"P. c #85292D",
"I. c #8A292E",
"U. c #8D2A2E",
"Y. c #902B2F",
"T. c #862D30",
"R. c #8E2C30",
"E. c #912D30",
"W. c #942F32",
"Q. c #843235",
"!. c #8C3134",
"~. c #86383C",
"^. c #933033",
"/. c #845654",
"(. c #915658",
"). c #876E6F",
"_. c #847374",
"`. c #807F80",
"'. c #848383",
"]. c #8C8787",
"[. c #8C8C8C",
"{. c #968889",
"}. c #949393",
"|. c #9C9C9C",
" X c #A4A4A4",
".X c #ABABAB",
"XX c #B3B3B3",
"oX c #BBBBBB",
"OX c #C4C4C4",
"+X c #CBCBCB",
"@X c #D3D3D3",
"#X c #DADADA",
"$X c #E5E5E5",
"%X c gray91",
/* pixels */
"V @.%.;.1.%.K J J K :.1.=.@.U S V U =.K.P.:.K V V K :.J.I.*.Y V V +.K.^.^.H.Y B V P H.E.E.H.Y V V P G.U.U.J.P V D Y H.^.E.H.P V ",
"V Y %.J.K.=.Y J S K %.K.1.#.K V V U =.*.#.U K V V U %.P.I.,.P B V Y G.^.^.H.P V V P H.E.E.H.P V B P H.Y.U.1.Y V J Y G.W.W.H.Y V ",
"V O.=.L.U.*.Y V V P *.U.I.J.Y V V U =.:.@.J J B S Y 1.I.L.,.P V V P G.E.E.H.P B V P H.E.E.G.Y V B P H.E.R.1.Y V D Y H.E.W.H.Y V ",
"D Y *.U.E.G.P V V Y G.E.E.H.P V B U %.@.J t B t V U *.U.I.1.U B V Y D.U.U.*.P V V P H.E.E.H.Y V V Y H.E.E.J.Y V V P D.Y.W.H.P V ",
"J Y ,.U.E.G.P V V Y G.E.E.H.P V V Y =.+.J t t 8 B Y ,.U.U.=.K V V Y *.U.U.;.Y V V P H.E.E.G.Y D V Y H.E.E.G.P V V Y G.E.W.H.Y V ",
"J Y *.U.I.1.Y J A Y G.E.E.H.Y V V Y =.1.@.K J B B P G.U.U.%.@.K V Y *.L.L.*.Y A V Y H.E.E.H.Y D V Y D.E.E.K.P V V Y H.E.W.H.Y V ",
"V Y =.I.I.=.K K K @.;.Y.E.G.P V V Y *.J.%.#.@.J V P G.R.U.%.#.K V K %.K.K.=.U B V Y H.E.E.H.P V V Y D.E.E.H.Y V V Y H.E.W.H.Y V ",
"V Y =.I.K.%.K J K U *.U.Y.G.Y V V P =.K.=.%.Y J V P G.R.I.%.K S S J +.J.P.J.Y V V Y K.^.^.K.Y V V Y G.E.E.H.Y V V Y H.E.E.H.Y V ",
"V Y 1.I.K.=.U V J U *.U.U.J.O.V V U =.K.K.%.Y V V @.~.(.e.+.O.K J K %.J.7.2.U V V Y H.^.^.K.Y V V Y H.E.E.H.Y V V Y G.E.Y.G.+.K ",
"V U =.I.L.*.Y J V Y *.U.U.*.U V V U =.K.H.*.Y V ( /.{.].a.8.8.^ t _ q.q.p.j. .Z V Y K.^.W.H.Y V V Y H.W.W.H.Y V V Y G.U.U.*.+.K ",
"V U %.K.K.,.Y V V P D.U.U.;.U B V Y ;.K.H.*.P ( B.}..XS.l g.d.p 9 X._.b.u.d.a.{ Z P H.W.E.D.P V V Y H.Y.W.K.Y V V Y G.U.U.=.Y J ",
"V U %.P.K.,.Y V V P D.R.U.=.U V V O.0.w.Q.w.4.n.}. X'.m.[.N.f @ 8 ( A.[.M.j m.a.r._ G.!.R.D.Y V V Y D.Y.E.K.Y V V Y G.R.U.=.@.J ",
"J P +.+.Q %.P V V P %.! Q %.P V V 4.B.z.x.C.u.A. X}.M.M.y.% . # B ( q m.XX}.M.m.i.[ O. .h.+.P V V P Q ! ! ! P V V P %.Q Q %.P V ",
"V G 9 # # 1 D V V G 9 = = 9 H V V j.C.Z.i. Xl S.}.S.M.l * % - 9 S l.M.k Z..XXX[.d.k 6 c.i.} ..Z B G x = = , D B V G 9 = # , D V ",
"1 - o . . o - 8 8 ; o . . O ; 9 t M.m.N.[.S.i.l d.'.}.}.S.M.4 < 8 u..XXX}.M.}.XX'.j i N.g.g.f.d : - o . . o = < 9 ; O o . o ; 9 ",
"O o + ; ; + o O O o + > > + o O r m.m.Z.|.g.k * X X & % X % X X @ X * d.S.}.m.S.S.i.s i.S.'.y.f @ . + ; ; + . O O o + > > + o O ",
". + c P P x + . . + c P P c + . 5 g.m.}.M.y.m.N.g.& @ X X X % X X X     % s y.i.l s k i.Z.[.d.s @ + 9 F F 1 + . . + x P P c + . ",
"+ 1 I D.D.I 9 + + 1 I K.K.I Z p f i.m.Z.m.m.M.d.s % % j k i % X X X X         X X * l i Z.'.d.i & d _ %.%.H < + + 9 I K.K.I x + ",
"< H =.L.L.=.H > > H *.E.!.7.B.m.i.y.g.M..X[.N.z * i j % s m.|.XXXX XZ.l     X * j } j i g.[.g.* l r.o.O.%.+.V ; : H D.W.E.*.J < ",
"B P =.I.U.G.P x x P H.!./.x.m.|.l d.j p d.'.[.[.y.X k XX$XOX[.Z.M.'..X#X+Xd.* * j g.m.|.m.m.g.5 m.z k / W %.K 9 9 P K.^.W.G.U B ",
"V K %.U.E.H.Y V V P D.Q._.g.m..Xg.A.% i 5 X X X X g.OX}.g.z p & X X X * N.+X}.* X % * i l j d.g.[.l p g R %.+.V V P H.W.E.;.J t ",
"C J =.R.E.D.P V B P =.q.C.i.Z.m.[.i.d.S.l s & X S.|.g.i.l & X             s }. Xi   X X * m.d.|.g.z s s m +.P V V Y H.W.E.;.K J ",
"V A %.U.U.=.P V V Y ,.6.v.y.N.M.}.m.[.S.Z.i.X A. Xz z j }. X|.%     p }. X|.* [.XX*   % s N.S.|.M.y.p p m W U V V Y H.E.E.=.U L ",
"J J %.U.U.=.U A V Y 1.6.z.y.g.}.].N.}.'.s X l |.k p X Z.%X%X}.      S.%X%X[.  % .X[.X S.|.Z.S.|. Xi.l i T W P B V P H.E.E.;.U J ",
"K Y =.K.I.:.K V V Y 3.e.o.z y.|.Z.'.m.*   X .Xd.% X X oX%X$Xi.    X OX%X$Xy.    k +Xj *  X X[.'..XZ.j 5 w E P B B P H.E.R.=.U S ",
"J Y =.K.K.#.K C V _ e.v.'.j * }.m.S.j     m.oXX X   j $X%X+X%     z $X%XOXX       |.[.  s }. XZ.}.S.& * 0 W P V V Y H.E.U.=.Y J ",
"J Y =.L.J.%.K B V X.s.z [.i.* M.d.[.s X X XXN.X     '.%X%X[.      [.%X%XS.        y.+XX   X i.S.[.m.X 5 ~ $.P B V Y G.E.Y.;.Y K ",
"V U *.I.L.=.K C J l.m.d.Z.'.* Z.S.[.d.s X OXj     X OX%X$Xi.i s * +X%X$Xy.i s     * @Xs & l z '.i.z i '.u.[ ) B V Y D.E.U.=.U V ",
"B U D.U.I.%.U J K j.m.g.m.|.y.'..X'.M.* * oX*     y.%X%X$X#X%X Xi.%X%X%X#X%X|.    X +Xy.% S.[.Z.z s  Xg.g.} { t V Y G.E.Y.;.K V ",
"V P D.E.U.;.Y J J X.c.z d.[.Z.N.}.d.y.X s OXX     [.%X%X%X%X$Xg.}.%X%X%X%X$Xd.      OXd.X N.|. Xy.S.oXg.y.p g 8 B Y H.E.Y.D.P V ",
"V Y H.E.U.;.U V V ) f.z g.S.[.[.'.i.X   s @X&   X S.'.'.%X%X+Xs S.S.[.%X%X+X*       +Xi.  k }.XXM.oX Xm.i 5 6 > B Y K.E.E.H.Y V ",
"V Y G.U.I.=.U B B G t.i.z g.S.S.i.% X   & #Xs         m.%X%X|.      N.%X%X}.      & #Xj X i [.XX|.oXm.z % 5 3 8 V Y G.E.W.H.Y V ",
"V P G.U.K.=.+.V B H ` | j s i g.% @ d.*   oXm.        XX%X%Xd.    X oX%X%Xi.      y.@X% p p M.|.`.'.k % * 2 7 x B P D.E.E.H.Y V ",
"V Y H.U.K.=.+.V B P W ' ] i.p m.m.k S.p   Z.oXX     p #X%X@X&     s $X%X+X%       |.|.  g.S.s m.g.s g.'.j ~ c x B P G.E.E.H.Y V ",
"V Y H.Y.I.;.Y V V Y ,.0.V.d. Xy.}.d.}.y.  * #Xi.    N.%X%X}.      Z.%X%X[.      s @Xy.X S. Xk y.% N.}.p u./ G B V +.G.U.E.K.P V ",
"V P H.E.R.G.P V V Y ~.b.S.g.'.XXm.g. Xi.    Z.OX* X XX%X%Xy.    X oX%X$Xz     X .X|.% & }..Xi.k [.'.i p g n H J K Y ,.U.R.H.P V ",
"B P D.U.U.D.P V V P k._.u.'.Z.|.}.z }.z X   X  X Xj [.'.Z.X     * }.'.Z.X   X '.OXl X i [.oXm..X}.d.m.a d M P J J Y D.U.E.H.Y V ",
"B U =.I.U.D.Y V V P >.h.M.l }.g. XM.'.j d.y.X * .X.Xs                     & }.+Xg.X y.l }.XX'.S.m.Z.p s / N P V V Y D.E.E.K.Y V ",
"V Y =.J.U.D.Y V V P %.$.z.g.z Z.S.[.z s '..Xs   * }.+XS.*             % g.OXoXN.* e }.* [.[.y.M.g.i & a w N U B V Y G.Y.E.K.P x ",
"V O.=.J.K.*.P V V Y *.3.5.s.y.i l i.k p Z. Xg.    X i.XX#XXXS.g.g.Z. X@X+X Xm.& X M.S.& d.i.i.l & % 5 6 m W P V V +.G.E.E.K.P B ",
"A U +.=.1.=.Y V V Y G.U.2.) } Z.d.s i.d.M. XS.s *     X k Z. XoXoXXX|.'.m.p X g.i }.m.i m.s i i & * 2 b +.=.Y V V +.G.R.E.H.Y V ",
"D Y +.1.1.=.Y A A Y H.E.!.k.m.XX[.Z.M.Z.M.[.'.j |.*           X % * * X     i.N.l |.i.S.'.'.S.z 5 2 b %.K.*.+.V V Y J.R.U.D.Y V ",
"V P %.J.J.=.Y J V Y H.^.~.).Z.l  XoX.XZ.y.m.Z.* }.m.. & y.d.*     i k X X % m.y.y.Z.m.[.}.}.S.m.h q W I.U.;.P V V Y 1.U.U.D.Y V ",
"V P =.K.K.=.P V V Y H.E.T.9.M.d.y.S.|.XX}.y.d.& |. Xi `.S.XXd.X X * m.S.% d.N.p z S. X.X X'.g.j s ^ W U.I.=.Y A A Y =.I.I.*.Y A ",
"V U +.Q Q %.P V V P ! ! Q M [ g.y.d.M.Z.Z.g.d.h '..Xl % X y.m.@ % X % s s Z.d.z [.|.[.'.l * & p l ^ N Q Q +.K V S U +.Q Q %.Y V ",
"V G 9 = # 8 G B B G 7 = = 8 ~ f.i.s i p e % & k M.Z.M.i k * N.i e & i.y.y.i.i.N.[.[.[.[.'.i.* 5 2 3 > = # < D V V D < # = 9 G V ",
"B ; O . . o - 1 1 ; o . . o - y k z k p * i N..X}.d.l & l d.s i & k m.a.m.N.N.M.g.h & % * p s $ - # o . . o - 8 9 - o . . o - 9 ",
"+ o + > > + o + O o + > > + . o X @ & 5 i.XX}.}.N.k % X k i.* d.X * i X i s i.m.d.d.i i s j i @ o o + > > + o O O o + > ; + . O ",
". + x P P c + . . + c P P x + . . O 8 ..c.l i & & * i y.l * h g.i s * S.}.'.* X % X & & 2 - o . . + x P P c + . . + x P P x + . ",
"+ 1 I K.K.I 9 + + 1 I H.G.P 1 O + 1 O.k.V.a.k * z & k S.y.[.M.@ p '.}.oXz k * * s i p 6 n n > O + 1 I G.D.I 9 + + 1 I D.D.I 1 + ",
"< G =.U.E.*.H < > G =.U.L.=.D : > G %.2.` ^ j & i l j g.m.g.* * * l d.p i.g.X * & & 2 n W Q H > > H *.U.U.*.H > > G =.K.K.=.H < ",
"B U D.E.E.H.P B B U %.I.U.D.P B B P *.P.w.t.j a * * p p i i i & f i.k s j * X & i p m W J.G.P B B P H.E.Y.D.P B x P *.G.J.=.U V ",
"B Y G.E.E.H.Y V V Y =.K.I.G.Y V V Y K.E.!.5.d p j s f } z f 2 - 3 ] } f f s * * r q R ,.L.G.P V V Y G.E.U.D.Y V V Y ,.K.1.:.K V ",
"B Y G.E.E.G.Y B B P =.K.I.;.Y V V +.H.E.U.W x 3 r r q w q 0 7 9 9 x v u g s 2 - ; x W G.K.=.Y B V Y G.E.U.*.P V V +.G.K.1.#.K B ",
"V Y G.E.E.H.P V V P =.H.L.*.+.J D Y H.W.^.D.P 9 8 x M O.E N M B B H W >.' b 7 9 9 H %.K.K.=.U B V Y H.E.U.G.Y V V Y G.K.=.@.K C ",
"J +.G.U.E.H.Y A V U %.J.K.,.Y D V Y D.E.E.H.Y V B P ,.U.R.G.P V V Y D.U.3.W H B B U =.K.K.=.P V B P H.E.E.G.Y V V P G.L.=.@.K V ",
"V Y G.U.U.J.Y J S U #.1.K.J.U B V Y H.E.E.H.Y V V P K.W.W.K.Y V V Y H.W.E.D.P B V Y %.K.L.=.P V V P H.E.E.G.Y V V P G.I.J.:.K V ",
"V Y ;.U.U.=.U J J U %.J.K.1.Y B V Y H.W.W.H.Y V V Y G.E.W.H.Y V V Y H.W.W.H.P V V Y =.K.L.*.Y V V P D.E.E.H.Y D V P G.U.R.1.Y S ",
"J Y *.U.I.=.U V V Y ;.L.K.;.P V V Y H.W.E.D.Y V V Y ,.U.E.H.Y V V P D.U.E.K.P B V U =.K.L.*.Y J V Y G.E.E.H.P V V P G.R.R.;.Y V ",
"K Y *.U.K.:.K V V U ;.U.K.=.P V V Y G.E.U.D.P B B P *.U.E.H.Y V V Y =.L.U.G.U B J Y =.L.U.D.+.J V Y G.E.E.H.P V V P H.Y.U.;.Y J ",
"J U %.K.J.:.K J S U ;.L.K.=.U B V P G.E.U.D.Y B B U %.K.U.G.Y V A Y %.I.U.;.K V K Y %.L.U.G.P A V U ;.R.E.H.Y V V Y H.Y.U.*.Y V ",
"V K :.1.%.@.J C V K :.=.1.%.K V V P G.R.U.;.Y V V U %.K.U.G.Y V A +.=.I.U.;.K S J Y %.I.E.G.P J J @.=.U.E.H.Y V V Y D.E.Y.G.P V ",
"V K #.:.:.@.K V B K @.%.%.@.K J V U *.U.U.;.P V V U =.K.U.G.P V V Y ;.U.U.*.U S S Y *.R.E.H.P V J @.1.I.U.G.P V V Y H.E.E.G.Y V ",
"V U #.#.@.U K B V J @.%.:.@.J C S U *.U.I.*.+.J J @.1.L.I.,.P V V Y ,.U.U.H.Y V V Y G.^.^.H.P V V Y 1.I.R.G.P B V Y H.E.Y.H.Y V "
};
