/* XPM */
static char *_701c835fd5a47708a42f5bc4a0703a0JU7UNxnOVwNffVGR[] = {
/* columns rows colors chars-per-pixel */
"64 64 182 2 ",
"   c #000000",
".  c #0D0502",
"X  c gray4",
"o  c #110703",
"O  c #140905",
"+  c #1B0C06",
"@  c #130D0A",
"#  c #1D0B08",
"$  c #1D120D",
"%  c #131413",
"&  c #1D1513",
"*  c #191817",
"=  c #1E1E1E",
"-  c #210B08",
";  c #25120B",
":  c #2B140B",
">  c #32150C",
",  c #39170F",
"<  c #33190E",
"1  c #3B1A0F",
"2  c #211615",
"3  c #281710",
"4  c #241916",
"5  c #251B1A",
"6  c #3A1710",
"7  c #351C13",
"8  c #3B1B11",
"9  c #2C231F",
"0  c #3E2215",
"q  c #232323",
"w  c #2E2522",
"e  c #2D2B2A",
"r  c #332521",
"t  c #3C2526",
"y  c #372926",
"u  c #342C2A",
"i  c #3B2C2A",
"p  c #36312F",
"a  c #3B302D",
"s  c #353535",
"d  c #3A3433",
"f  c #3B3A3A",
"g  c #431D11",
"h  c #491D12",
"j  c #581F1E",
"k  c #452215",
"l  c #4A2416",
"z  c #402816",
"x  c #4B2817",
"c  c #45261B",
"v  c #4D2619",
"b  c #462A1E",
"n  c #4C291A",
"m  c #522517",
"M  c #5A2617",
"N  c #542519",
"B  c #5A261A",
"V  c #532A1A",
"C  c #5C2C1C",
"Z  c #59311C",
"A  c #66261D",
"S  c #69251E",
"D  c #64291E",
"F  c #69281F",
"G  c #611F20",
"H  c #741F23",
"J  c #791E24",
"K  c #4B2D22",
"L  c #402728",
"P  c #422B2C",
"I  c #552F24",
"U  c #5E2923",
"Y  c #463129",
"T  c #543225",
"R  c #5B3427",
"E  c #54372D",
"W  c #472F30",
"Q  c #4B3232",
"!  c #453A36",
"~  c #4B3A35",
"^  c #443C3B",
"/  c #4A3D3B",
"(  c #553F3D",
")  c #5A393B",
"_  c #662720",
"`  c #6B2521",
"'  c #642A22",
"]  c #6B2922",
"[  c #69272A",
"{  c #622E29",
"}  c #6F2B2D",
"|  c #742524",
" . c #7A2325",
".. c #7D2327",
"X. c #7E2227",
"o. c #7A2426",
"O. c #7B2426",
"+. c #7D2427",
"@. c #732826",
"#. c #76272A",
"$. c #7F2328",
"%. c #7D2528",
"&. c #7D2429",
"*. c #7F2428",
"=. c #752A2E",
"-. c #7C2A2D",
";. c #752B30",
":. c #7A2D32",
">. c #613632",
",. c #6D3536",
"<. c #603A31",
"1. c #7D3134",
"2. c #733538",
"3. c #7D3B3D",
"4. c #48413E",
"5. c #5D3F40",
"6. c #603F41",
"7. c #474646",
"8. c #494443",
"9. c #4D4C4C",
"0. c #544343",
"q. c #5E4142",
"w. c #504946",
"e. c #524E4C",
"r. c #5D484A",
"t. c #545353",
"y. c #5A5655",
"u. c #5A5A5A",
"i. c #634243",
"p. c #665252",
"a. c #655E5B",
"s. c #6B5E5C",
"d. c #725C5E",
"f. c #6A605D",
"g. c #70605F",
"h. c #755F60",
"j. c #636363",
"k. c #6E6A68",
"l. c #746262",
"z. c #7B6465",
"x. c #796F6E",
"c. c #767676",
"v. c #7E7977",
"b. c #7D7D7D",
"n. c #812227",
"m. c #822227",
"M. c #832329",
"N. c #852229",
"B. c #842329",
"V. c #802429",
"C. c #85252B",
"Z. c #89272C",
"A. c #85282C",
"S. c #8A292E",
"D. c #8D292E",
"F. c #8E2B2F",
"G. c #912B2F",
"H. c #862F33",
"J. c #8E2C30",
"K. c #912D30",
"L. c #942F32",
"P. c #833235",
"I. c #893133",
"U. c #833638",
"Y. c #933033",
"T. c #943033",
"R. c #827E7B",
"E. c #82807F",
"W. c #838383",
"Q. c #8D8282",
"!. c #8F8F8F",
"~. c #928484",
"^. c #939292",
"/. c #9A9A9A",
"(. c #A6A6A6",
"). c #ABABAB",
"_. c #B0B0AF",
"`. c #B3B3B3",
"'. c #BCBCBC",
"]. c #C4C4C4",
"[. c gray79",
"{. c #D5D5D5",
/* pixels */
"v _ | +.*.| C V V C @.*.o._ D x l D o.C.A.@.C l l C @.V.S.X.D l l _ C.Y.Y.B.F k l A B.K.K.B.F l l A M.D.D.V.A l m F B.Y.K.B.A l ",
"v D | V.C.o.D V n C | C.*.] C l l D o.X.] D C k l D | A.S.$.A k l F M.T.T.B.A l l A B.K.K.B.A l k A B.G.D.*.D l V F M.L.L.B.F l ",
"l _ o.Z.D.X.D l l A X.D.S.V.D l l D o.@.' Z V k x D *.S.Z.$.A l v A M.K.K.B.A k l A B.K.K.M.F l k A B.K.J.*.D v m F B.K.L.B.F v ",
"m F X.D.K.M.A l l F M.K.K.B.A v k D | _ V 0 k 8 l D X.D.S.*.D k v D n.G.D.X.A l l A B.K.K.B.F v l F B.K.K.V.D l l A n.G.L.B.A l ",
"V F $.D.K.M.A l l F M.K.K.B.A l l D o.` V z 0 7 k D $.D.D.o.C l v D X.D.D.+.D l l A B.K.K.M.F m l F B.K.K.M.A l l F M.K.L.B.F l ",
"V D X.D.S.*.D V v F M.K.K.B.F v l D X.*._ C V k k A M.D.D.| _ C v D X.Z.Z.X.D v v F B.K.K.B.F m l F n.K.K.C.F l l F B.K.L.B.F l ",
"l D o.S.S.o.C C C _ +.G.K.M.A l l D X.C.| ] _ V l A M.J.D.| ] C l C | C.C.o.D k l F B.K.K.B.A l l F n.K.K.B.F l l F B.K.L.B.F l ",
"l D o.S.C.| C V C D X.D.G.M.D l l A o.C.o.| D V l A M.D.D.| C K b V ` V.S.V.D l l F C.T.T.C.F l l F M.K.K.B.F l l F B.K.K.B.F v ",
"v D *.S.C.o.D l V D X.D.D.V._ l v D o.C.C.| D v l F M.K.D.o.>.R.k.T @.V.V.*.D l l F B.T.T.C.F l l F B.K.K.B.F l l F M.K.G.M.` C ",
"v D o.S.Z.X.F V v D X.D.D.X.D l l D o.C.B.X.F v v F B.K.S.,.Q.u.9.s.} C.+.| A l l F C.T.L.B.F v l F B.L.L.B.F l l F M.D.D.X.` C ",
"l D | C.C.$.F v l A n.D.D.+.D k v F +.B.B.X.A l v F B.K.3.Q.7.'.[.9.l.:.S.n.F l l F B.L.K.n.A v l F B.G.L.C.F l l F M.D.D.o.D V ",
"l D | A.C.$.F l l A n.J.D.o.D l v F o.A.D.n.F l l F V.3.~.u.'.f q '.t.d.P.B.F l v F C.L.G.B.F v v F n.G.K.C.F l l F M.J.D.o._ V ",
"V A ` ` H | A l l A  .J H  .A l v D ` H H  .A l l A ,.Q.7.'.s     q ].9.l.} A l l F J J J J A l v A H H J J A l l A  .H H | A v ",
"v N 8 # # 1 m l l N 8 - - 8 B l l N 8 # - 8 N l l E Q.y.].f         q '.y./ m l l N 8 - - 8 m k k N g - - , m k l N 8 - # , m l ",
"1 ; o . . o ; 8 7 : o . . O : 8 8 ; o . . o : 8 Y R.9.'.s             s {.* : 8 8 - o . . o ; < < ; o . . o - < 8 : O o . o : 8 ",
"O o + : : + o O O o + > > + o O O o + > > + o w E.t.'.f             % '.t.+ o + O o + : : + . O O . + : : + . O O o + > > + o O ",
". + h A A g + . . + h A A h + . . + h A A g r b.t.'.f             * `.t.h g + . @ ; g B A g + . . + 1 M M 1 + . . + g A A h + . ",
"+ 1 S n.n.S 8 + + 1 S C.C.S 1 + + 1 S C.V.>.W.9.'.f             % '.t.G o.A 8 4 f y.U X.X.A 1 + + 8 A  .| B < + + 8 S C.C.S g + ",
"< B o.Z.Z.o.B > > B X.K.K.X.B > > B X.J.3.Q.y.'.f             * `.y.j C.Z.| I 8.k.9.d.1.S.| N < < B | $.X.` l : : B n.L.K.X.V < ",
"k A o.S.D.M.A g g A B.L.L.C.A g g A V.3.~.7.].s             X '.9.N o.Z.D.=.0.b.(.[.e.z.1.o.C k 0 V @.*.M.o.C 8 8 A C.T.L.M.D k ",
"l C | D.K.B.F l l A n.K.L.C.F l l _ 2.~.u.'.f             * `.y.7 A M.J.P.0.b./.X q '.t.d.} D x l C | *.M.$._ v l A B.L.K.+.V 0 ",
"x V o.J.K.n.A l k A X.K.K.C.F l l >.Q.7.'.s             X `.e.7 k A n.1.r.b.(.X     q ].9.l.R V C D o.B.C.o.A l l F B.L.K.+.C V ",
"l v | D.D.o.A l l D M.J.J.B.A l c x.u.].f             * '.y.v l l A ;.0.b./.X         q '.y.f.T C F X.S.S.o.D l l F B.K.K.o.D Z ",
"V V | D.D.o.D v v D V.J.K.C.F l c i W.!.              j.(.y ' l v { r.b.(.X             q ].9.f.T D X.D.D.X.A k l A B.K.K.+.D V ",
"C F o.C.S.@.C l v D M.D.J.M.F l l ' W /.W.              W./.i n K 8.b./.X                 q ].y.s.{ M.D.D.X.A k k A B.K.J.o.D n ",
"V D o.C.C.] C x l D n.D.K.#._ l l F -.P /.b.              W.^.d w.b.).X                     q '.9.s.;.D.Z.V._ l l F B.K.D.o.D V ",
"V D o.Z.V.| C k l D X.K.3.z.2 0 l F B.I.Q ^.W.              b./.b./.X                         q ].t.l.:.D.n.A k v F M.K.D.+.D C ",
"v D X.S.Z.o.C x V D *.3.~.y.'.^ 0 F B.L.I.P /.W.              W.(.X             t.q             q '.9.h.1.o.A l v F n.K.D.o.D v ",
"k D n.D.S.| D V C D 2.~.7.'.7.'.^ B B.T.K.*.P !.W.                            j.`.[.q             q ].e.z.;._ l l F M.K.G.+.C l ",
"l A n.K.D.+.D V C <.Q.u.'.f   q '.^ H K.L.B._ i /.W.                        j.).w ^ '.q             q '.t.d.{ l l F B.K.G.n.A l ",
"v F B.K.D.+.D v E Q.7.'.s       = ].^ -.K.B.F n u ^.b.                    j._.9 v B ^ [.q             q ].9.l.c l F C.K.K.B.F v ",
"v F M.D.S.o.D c v.u.'.f           = `.^ #.n.F l c d /.W.                j.).y k l A ` ^ '.q             q '.y.e.l F M.K.L.B.F v ",
"l A M.D.C.o.` n f.9.[.q             = ].^ ` A v K w.b.(.                W.!.a n l A $.#.^ ].q           % '.u.! k A n.K.K.B.F v ",
"l F B.D.C.o.` l c s.9.'.q             = '.^ N K 4.b./.X                   W./.u n D X.D.#.^ '.q       * `.u.( k k A M.K.K.B.F v ",
"l F B.G.S.+.F l l { l.t.].q             q [.^ 8.b.).X                       W.^.a ' o.S.J.` ^ '.q   % `.u.5.U k v _ M.D.K.C.A l ",
"l A B.K.J.M.A l l F =.d.9.'.q             q '.!./.X                           b./.i #.D.K.C.B ^ ].f '.u.i.*.F V C F $.D.J.B.A l ",
"k A n.D.D.n.A l l F M.P.z.y.].q             q ^.X             j.W.              W.^.Q H.K.B.F k f {.u.i.H.n.F V V F n.D.K.B.F l ",
"k D o.S.D.n.F l v F B.Y.U.h.9.].q                           j.).!.W.              b./.L I.B.F l k 5 ) I.G.n.D v l F n.K.K.C.F l ",
"l D o.V.D.n.F v v F B.T.L.=.g.y.'.q                       j.`.w u /.W.              W./.Q *.F l l A M.L.K.X.D k l F M.G.K.C.A g ",
"v _ o.V.C.X.A l v F M.T.T.C.{ s.9.].q                   j.).r k n i ^.b.              b.^.P ' l l _ B.L.K.o.A l l _ M.K.K.C.A k ",
"v D ` o.*.o.D l v F M.K.L.B.A c a.t.'.q               j.).t A l l ' P (.b.              !.^.y k l F B.K.D.X.F v v _ M.J.K.B.F l ",
"m D ` *.*.o.D v v F B.K.K.B.F k K l.9.].q           j.`.L *.F l v U u ].f             % '.u.~ k k A B.K.D.X._ v v F V.J.D.n.F l ",
"l A | V.V.o.D V v F B.K.T.B.F l l { d.e.'.q       j.(.P H.B.F v c d '.f             * `.u.5.' l l F B.K.D.+.A v v D *.D.D.n.F v ",
"l A o.C.C.o.A v l F B.K.K.B.F v v F ;.z.t.].q   j.'.t H.D.B.F c u '.f             % `.u.i.*.F l l F M.J.S.o.D v v D o.S.S.X.F v ",
"l D ` H H  .A l l A J J J  ._ v v A H [ s.9.'.c.(.r ` H H | U p ].f             * '.u.( | J A l l A  .H H ` C v x D ` H H | D v ",
"l N 8 - # 8 N k k N 6 - - 8 N l l N , # 4 a.y.).w m , # - 7 u '.f             % `.u.! ; - 8 N k k N 8 - # , m l l m , # - 8 N l ",
"k : O . . o ; 1 1 : o . . o : 8 8 ; o . . & 8.4 8 : o . @ e [.s             % '.u.^ + . . o ; < 8 ; o . . o ; 8 8 ; o . . o ; 8 ",
"+ o + > > + o + O o + > > + o O O o + > > + @ + O o + 3 e '.s             % ).u.d @ + > > + o O O o + > > + o O O o + > : + . O ",
". + g A A h + . . + h A A g + . . + g A A g + . . + 7 u [.s             % ].u.d @ + g A A h + . . + g A A h + . . + g A A g + . ",
"+ 1 S C.C.S 8 + + 1 S B.M.A 1 O + 1 S B.n.S 1 + + 7 2 `.t.            * `.u.^ $ + < A n.n.S 1 + + 1 S n.n.S 8 + + 1 S n.n.S 1 + ",
"< N o.D.K.X.B < > N o.D.Z.o.m : > N o.D.G.X.B < < l p.9.].q         % '.u.q.V < < V | Z.D.X.B > > B X.D.D.X.B > > N  .C.C.o.B < ",
"k D n.K.K.B.A k k D | S.D.n.A k k A M.K.L.C.A k k D =.h.e.'.q     * `.u.i.#.A l k D | C.D.M.A k k A B.K.G.M.A k g A X.M.V.o.D l ",
"k D M.K.K.B.F l l D o.C.S.M.D l v F C.K.K.B.A l l D V.U.z.t.].q % `.u.i.I.M.D l v D *.C.S.M.A l l F M.K.D.n.F l l F $.C.*.@.C l ",
"k D M.K.K.M.F k k A o.C.S.+.D v v _ B.K.L.B.A k l A M.K.P.d.9.'.'.u.6.I.K.M.F l l A o.C.C.o.D k l F M.K.D.X.A l l _ M.C.*.] C k ",
"v D M.K.K.B.A l l A o.B.Z.X._ V m F B.L.T.B.F l l F C.L.L.;.l.y.u.( *.L.L.B.F l k D o.C.C.o.D k l F B.K.D.M.F l l F M.C.o._ C x ",
"V _ M.D.K.B.D v l D | V.C.$.D m v F n.K.K.B.F l l F C.T.T.C.{ e.~ _ B.L.T.C.F l k D o.C.C.o.A l k A B.K.K.M.F v l A M.Z.+._ C l ",
"l D M.D.D.V.D V n D ] *.C.V.D k l F B.K.K.B.F l l A C.L.L.C.F l l F B.L.L.B.A k l D | C.Z.o.A l l A B.K.K.M.D v l A M.S.V.@.C l ",
"v D +.D.D.o.D V V D | V.C.*.D k l F B.L.L.B.F l l F M.K.L.B.F v l F B.L.L.B.A l l D o.C.Z.X.F v l A n.K.K.B.F m v A M.D.J.*.D n ",
"V D n.D.S.o.D l l D +.Z.C.+.A l l F B.L.K.n.F l l F $.D.K.B.F l l A n.D.K.C.A k l D o.C.Z.X.F V l D M.K.K.B.A l l A M.J.J.+.D v ",
"C D X.D.C.@.C l l D +.D.C.o.D l l F M.K.D.n.A k k A X.D.K.B.F l l D o.Z.D.M.D k V D o.Z.D.n._ V l D M.K.K.B.A l l A B.G.D.+.D V ",
"V D | C.V.@.C V x D +.Z.C.o.D k l A M.K.D.n.D k k D | C.D.M.F l v D | S.D.+.C l C D o.Z.D.M.A v l D +.J.K.B.F l l F B.G.D.X.D l ",
"l C @.V.| _ V x l C @.+.*.| C l l A M.J.D.+.D v l D | C.D.M.F l v _ o.S.D.+.C x V D o.S.K.M.A V V _ o.D.K.B.F l l F n.K.G.M.A v ",
"l C ] @.@._ C l k C _ | | _ C V v D X.D.D.+.A v l D o.C.D.M.A l l D +.D.D.X.D n n D X.K.K.B.A v V _ *.S.D.M.A l l F B.K.K.M.F v ",
"v D ] ] _ D C k l V _ | @.' V x x D X.D.S.X._ V V _ *.C.S.$.A l l D $.D.D.B.F l l D M.T.Y.B.A l v D *.S.J.M.A k l F B.K.G.B.F l "
};
